# xmcd CD database file
#
# Track frame offsets:
#	150
#	33827
#	83535
#	121737
#	135800
#	150570
#	164555
#	186345
#	197055
#	219942
#
# Disc length: 3381 seconds
#
# Revision: 0
# Processed by: cddbd v1.5.1PL0 Copyright (c) Steve Scherf et al.
# Submitted via: CDex 1.50
#
DISCID=740d330a
DTITLE=Wes Montgomery - Encores Vol 2 - Blue 'N' Boogie
DYEAR=1996
DGENRE=Jazz
TTITLE0=Born to Be Blue
TTITLE1=Blue 'N' Boogie
TTITLE2=Cariba
TTITLE3=The Girl Next Door
TTITLE4=God Bless the Child
TTITLE5=Prelude to a Kiss
TTITLE6=Tune-Up
TTITLE7=Baubles, Bangles and Beads
TTITLE8=The Trick Bag
TTITLE9=Movin' Along
EXTD=YEAR: 1996
EXTT0=
EXTT1=
EXTT2=
EXTT3=
EXTT4=
EXTT5=
EXTT6=
EXTT7=
EXTT8=
EXTT9=
PLAYORDER=
